<?xml version="1.0" standalone="no"?><!DOCTYPE svg PUBLIC "-//W3C//DTD SVG 1.1//EN" "http://www.w3.org/Graphics/SVG/1.1/DTD/svg11.dtd"><svg t="1770086079059" class="icon" viewBox="0 0 1024 1024" version="1.1" xmlns="http://www.w3.org/2000/svg" p-id="10669" xmlns:xlink="http://www.w3.org/1999/xlink" width="200" height="200"><path d="M906.825143 613.024914C754.658743 969.464686 512 1009.371429 512 1009.371429 512 1009.371429 269.341257 969.464686 117.174857 613.024914L117.028571 613.024914 117.028571 209.364114 117.028571 166.736457 117.028571 159.275886C141.048686 163.84 165.741714 166.473143 191.0784 166.473143 317.205943 166.473143 429.2608 106.876343 501.584457 14.423771L510.683429 28.145371 527.5648 21.386971C600.005486 109.948343 685.202286 166.473143 808.228571 166.473143 842.371657 166.473143 875.344457 161.645714 906.971429 153.482971L906.971429 166.736457 906.971429 204.624457 906.971429 613.024914 906.825143 613.024914ZM857.585371 213.109029C841.406171 214.981486 824.9344 216.064 808.228571 216.064 682.013257 216.064 587.395657 162.962286 511.239314 78.058057 430.401829 162.757486 317.176686 216.064 191.0784 216.064 182.740114 216.064 174.606629 215.391086 166.385371 214.864457L166.385371 612.703086C166.385371 612.703086 318.815086 910.189714 512 959.780571 705.184914 910.189714 857.585371 612.703086 857.585371 612.703086L857.585371 213.109029ZM487.306971 860.628114C342.776686 840.235886 215.771429 587.278629 215.771429 563.141486 215.771429 538.975086 215.771429 265.6256 215.771429 265.6256 215.771429 265.6256 317.732571 266.737371 339.207314 265.6256 360.6528 264.543086 512 166.473143 512 166.473143 545.879771 205.531429 668.584229 265.6256 684.792686 265.6256 701.001143 265.6256 808.228571 265.6256 808.228571 265.6256L808.228571 563.141486C700.591543 876.309943 487.306971 860.628114 487.306971 860.628114ZM363.871086 612.703086C361.120914 625.576229 363.871086 662.293943 363.871086 662.293943L536.693029 662.293943C544.533943 576.775314 586.049829 538.331429 586.049829 538.331429 576.746057 538.331429 561.327543 538.331429 536.693029 538.331429 437.4528 538.331429 366.621257 599.829943 363.871086 612.703086ZM524.346514 339.909486C476.628114 339.909486 437.950171 384.4096 437.950171 439.266743 437.950171 494.153143 476.628114 538.653257 524.346514 538.653257 572.064914 538.653257 610.742857 494.153143 610.742857 439.266743 610.742857 384.4096 572.064914 339.909486 524.346514 339.909486ZM734.178743 637.454629C734.178743 596.3776 701.001143 563.053714 660.099657 563.053714 619.198171 563.053714 586.049829 596.3776 586.049829 637.454629 586.049829 678.531657 619.198171 711.826286 660.099657 711.826286 701.001143 711.826286 734.178743 678.531657 734.178743 637.454629ZM626.600229 671.3344 626.600229 671.3344 598.981486 643.598629 617.384229 625.108114 645.002971 652.843886 691.053714 606.6176 709.485714 625.108114 645.002971 689.854171 626.600229 671.3344Z" p-id="10670"></path></svg>